<svg xmlns="http://www.w3.org/2000/svg" xmlns:xlink="http://www.w3.org/1999/xlink" style="margin:auto;background:#0f1923;display:block;z-index:1;position:relative" width="3000" height="704" preserveAspectRatio="xMidYMid" viewBox="0 0 3000 704">
<g transform="translate(1500,352) scale(1,1) translate(-1500,-352)"><defs>
  <path id="path-oo0zfrnwp1-1" d="M-35 -35L35 -35L35 35L-35 35Z" fill="none" stroke="inherit" stroke-width="5.833333333333333" transform="scale(0.36000000000000004)"></path>
  <path id="path-oo0zfrnwp1-2" d="M0 -37A37 37 0 0 1 0 37A37 37 0 0 1 0 -37" fill="none" stroke="inherit" stroke-width="5.833333333333333" transform="scale(0.36000000000000004)"></path>
  <path id="path-oo0zfrnwp1-3" d="M0 -34.641L40 34.641L-40 34.641Z" fill="none" stroke="inherit" stroke-width="5.833333333333333" transform="scale(0.36000000000000004)"></path>
</defs><path id="path0" d="M 170.41177541836998 372.2869840055175
c 0 44.84239353134062 -10.972075012987597 12.880261971768052 -23.85233698475565 12.880261971768052
S 122.70710144885868 417.12937753685816 122.70710144885868 372.2869840055175
s 10.972075012987597 -12.880261971768052 23.85233698475565 -12.880261971768052
S 170.41177541836998 327.4445904741769 170.41177541836998 372.2869840055175
z" fill="none" stroke="none"></path>
<use xlink:href="#path-oo0zfrnwp1-1" x="0" y="0" stroke="#ff4655">
  <animateMotion begin="-0.2943476133220633s" dur="8.292542363367566s" keyPoints="1;0" keyTimes="0;1" repeatCount="indefinite" calcMode="linear">
    <mpath xlink:href="#path0"></mpath>
  </animateMotion>
</use><path id="path1" d="M 356.7387054224537 654.4505606684285
c 0 63.58033267062599 -15.556889908770188 18.26243597986066 -33.81932588863084 18.26243597986066
S 289.100053645192 718.0308933390545 289.100053645192 654.4505606684285
s 15.556889908770188 -18.26243597986066 33.81932588863084 -18.26243597986066
S 356.7387054224537 590.8702279978024 356.7387054224537 654.4505606684285
z" fill="none" stroke="none"></path>
<use xlink:href="#path-oo0zfrnwp1-3" x="0" y="0" stroke="#ff4655">
  <animateMotion begin="-3.7715370388513616s" dur="10.568166927974167s" keyPoints="0;1" keyTimes="0;1" repeatCount="indefinite" calcMode="linear">
    <mpath xlink:href="#path1"></mpath>
  </animateMotion>
</use><path id="path2" d="M 664.4928173702209 618.2454684710696
c 0 61.79523923090872 -15.120111726711707 17.749696374835484 -32.86980810154719 17.749696374835484
S 598.7532011671266 680.0407077019782 598.7532011671266 618.2454684710696
s 15.120111726711707 -17.749696374835484 32.86980810154719 -17.749696374835484
S 664.4928173702209 556.4502292401609 664.4928173702209 618.2454684710696
z" fill="none" stroke="none"></path>
<use xlink:href="#path-oo0zfrnwp1-1" x="0" y="0" stroke="#ff4655">
  <animateMotion begin="-2.59686813527883s" dur="8.112800952332192s" keyPoints="1;0" keyTimes="0;1" repeatCount="indefinite" calcMode="linear">
    <mpath xlink:href="#path2"></mpath>
  </animateMotion>
</use><path id="path3" d="M 999.825744330731 452.30001392208777
c 0 48.73653093898676 -11.924895868049951 13.998790801623858 -25.92368666967381 13.998790801623858
S 947.9783709913835 501.0365448610745 947.9783709913835 452.30001392208777
s 11.924895868049951 -13.998790801623858 25.92368666967381 -13.998790801623858
S 999.825744330731 403.56348298310104 999.825744330731 452.30001392208777
z" fill="none" stroke="none"></path>
<use xlink:href="#path-oo0zfrnwp1-3" x="0" y="0" stroke="#ff4655">
  <animateMotion begin="-2.6815966420920403s" dur="10.963523395609192s" keyPoints="1;0" keyTimes="0;1" repeatCount="indefinite" calcMode="linear">
    <mpath xlink:href="#path3"></mpath>
  </animateMotion>
</use><path id="path4" d="M 1513.0014814355527 474.08746895210294
c 0 52.39317618889388 -12.819606939835737 15.049103798937605 -27.86871073877334 15.049103798937605
S 1457.2640599580059 526.4806451409968 1457.2640599580059 474.08746895210294
s 12.819606939835737 -15.049103798937605 27.86871073877334 -15.049103798937605
S 1513.0014814355527 421.69429276320903 1513.0014814355527 474.08746895210294
z" fill="none" stroke="none"></path>
<use xlink:href="#path-oo0zfrnwp1-3" x="0" y="0" stroke="#ff4655">
  <animateMotion begin="-1.9436399061821248s" dur="11.417103569064086s" keyPoints="1;0" keyTimes="0;1" repeatCount="indefinite" calcMode="linear">
    <mpath xlink:href="#path4"></mpath>
  </animateMotion>
</use><path id="path5" d="M 1633.256254346656 178.97503810124175
c 0 33.22832217408601 -8.130334148978491 9.544305305322577 -17.67463945430107 9.544305305322577
S 1597.906975438054 212.20336027532775 1597.906975438054 178.97503810124175
s 8.130334148978491 -9.544305305322577 17.67463945430107 -9.544305305322577
S 1633.256254346656 145.74671592715575 1633.256254346656 178.97503810124175
z" fill="none" stroke="none"></path>
<use xlink:href="#path-oo0zfrnwp1-1" x="0" y="0" stroke="#ff4655">
  <animateMotion begin="-2.7474658846253046s" dur="14.045654621736565s" keyPoints="0;1" keyTimes="0;1" repeatCount="indefinite" calcMode="linear">
    <mpath xlink:href="#path5"></mpath>
  </animateMotion>
</use><path id="path6" d="M 2009.7409052495564 470.34947762164273
c 0 36.757079878938484 -8.99375358739984 10.557884646078074 -19.551638233477917 10.557884646078074
S 1970.6376287826006 507.10655750058123 1970.6376287826006 470.34947762164273
s 8.99375358739984 -10.557884646078074 19.551638233477917 -10.557884646078074
S 2009.7409052495564 433.59239774270424 2009.7409052495564 470.34947762164273
z" fill="none" stroke="none"></path>
<use xlink:href="#path-oo0zfrnwp1-3" x="0" y="0" stroke="#ff4655">
  <animateMotion begin="-0.25035211846066713s" dur="15.158775916923702s" keyPoints="1;0" keyTimes="0;1" repeatCount="indefinite" calcMode="linear">
    <mpath xlink:href="#path6"></mpath>
  </animateMotion>
</use><path id="path7" d="M 2299.876618473616 236.5020080431656
c 0 44.222211398120834 -10.820328320816797 12.702124550524069 -23.522452871340867 12.702124550524069
S 2252.8317127309347 280.72421944128644 2252.8317127309347 236.5020080431656
s 10.820328320816797 -12.702124550524069 23.522452871340867 -12.702124550524069
S 2299.876618473616 192.27979664504477 2299.876618473616 236.5020080431656
z" fill="none" stroke="none"></path>
<use xlink:href="#path-oo0zfrnwp1-2" x="0" y="0" stroke="#ff4655">
  <animateMotion begin="-1.9700481460149215s" dur="15.331798765488225s" keyPoints="0;1" keyTimes="0;1" repeatCount="indefinite" calcMode="linear">
    <mpath xlink:href="#path7"></mpath>
  </animateMotion>
</use><path id="path8" d="M 2690.458494897156 604.697141359313
c 0 29.832896743677008 -7.299538564942246 8.56902353275829 -15.868562097700536 8.56902353275829
S 2658.7213707017545 634.53003810299 2658.7213707017545 604.697141359313
s 7.299538564942246 -8.56902353275829 15.868562097700536 -8.56902353275829
S 2690.458494897156 574.864244615636 2690.458494897156 604.697141359313
z" fill="none" stroke="none"></path>
<use xlink:href="#path-oo0zfrnwp1-1" x="0" y="0" stroke="#ff4655">
  <animateMotion begin="-2.931040049000086s" dur="10.68939907135822s" keyPoints="0;1" keyTimes="0;1" repeatCount="indefinite" calcMode="linear">
    <mpath xlink:href="#path8"></mpath>
  </animateMotion>
</use><path id="path9" d="M 2842.1223558132165 260.6066033496301
c 0 46.879757874916116 -11.470579054500751 13.465462368326971 -24.93604142282772 13.465462368326971
S 2792.250272967561 307.4863612245462 2792.250272967561 260.6066033496301
s 11.470579054500751 -13.465462368326971 24.93604142282772 -13.465462368326971
S 2842.1223558132165 213.726845474714 2842.1223558132165 260.6066033496301
z" fill="none" stroke="none"></path>
<use xlink:href="#path-oo0zfrnwp1-1" x="0" y="0" stroke="#ff4655">
  <animateMotion begin="-3.1702959733974843s" dur="14.218262025663083s" keyPoints="1;0" keyTimes="0;1" repeatCount="indefinite" calcMode="linear">
    <mpath xlink:href="#path9"></mpath>
  </animateMotion>
</use></g>
</svg>