<svg xmlns="http://www.w3.org/2000/svg" xmlns:xlink="http://www.w3.org/1999/xlink" style="margin:auto;background:#0f1923;display:block;z-index:1;position:relative" width="763" height="704" preserveAspectRatio="xMidYMid" viewBox="0 0 763 704">
<g transform="translate(381.5,352) scale(1,1) translate(-381.5,-352)"><defs>
  <path id="path-d5i7hnwv7u-1" d="M-35 -35L35 -35L35 35L-35 35Z" fill="none" stroke="inherit" stroke-width="5.833333333333333" transform="scale(0.36000000000000004)"></path>
  <path id="path-d5i7hnwv7u-2" d="M0 -37A37 37 0 0 1 0 37A37 37 0 0 1 0 -37" fill="none" stroke="inherit" stroke-width="5.833333333333333" transform="scale(0.36000000000000004)"></path>
  <path id="path-d5i7hnwv7u-3" d="M0 -34.641L40 34.641L-40 34.641Z" fill="none" stroke="inherit" stroke-width="5.833333333333333" transform="scale(0.36000000000000004)"></path>
</defs><path id="path0" d="M 89.24889846202277 89.68247279168867
c 0 32.03176160631422 -7.83755869090667 9.200612376281745 -17.038171067188415 9.200612376281745
S 55.172556327645935 121.71423439800289 55.172556327645935 89.68247279168867
s 7.83755869090667 -9.200612376281745 17.038171067188415 -9.200612376281745
S 89.24889846202277 57.65071118537445 89.24889846202277 89.68247279168867
z" fill="none" stroke="none"></path>
<use xlink:href="#path-d5i7hnwv7u-3" x="0" y="0" stroke="#ff4655">
  <animateMotion begin="-1.1339287189491565s" dur="14.789262295395263s" keyPoints="1;0" keyTimes="0;1" repeatCount="indefinite" calcMode="linear">
    <mpath xlink:href="#path0"></mpath>
  </animateMotion>
</use><path id="path1" d="M 171.92693127350964 210.022862351084
c 0 38.799169526299494 -9.493413820264768 11.1444423107456 -20.637856131010366 11.1444423107456
S 130.65121901148888 248.8220318773835 130.65121901148888 210.022862351084
s 9.493413820264768 -11.1444423107456 20.637856131010366 -11.1444423107456
S 171.92693127350964 171.2236928247845 171.92693127350964 210.022862351084
z" fill="none" stroke="none"></path>
<use xlink:href="#path-d5i7hnwv7u-1" x="0" y="0" stroke="#ff4655">
  <animateMotion begin="-0.8071659308996249s" dur="16.072855265358218s" keyPoints="0;1" keyTimes="0;1" repeatCount="indefinite" calcMode="linear">
    <mpath xlink:href="#path1"></mpath>
  </animateMotion>
</use><path id="path2" d="M 243.90747615539937 254.5886002322212
c 0 65.06495267060315 -15.92014799387098 18.688869384109413 -34.60901737798039 18.688869384109413
S 174.68944139943858 319.65355290282434 174.68944139943858 254.5886002322212
s 15.92014799387098 -18.688869384109413 34.60901737798039 -18.688869384109413
S 243.90747615539937 189.52364756161808 243.90747615539937 254.5886002322212
z" fill="none" stroke="none"></path>
<use xlink:href="#path-d5i7hnwv7u-1" x="0" y="0" stroke="#ff4655">
  <animateMotion begin="-0.5502963792054572s" dur="19.513287791309505s" keyPoints="1;0" keyTimes="0;1" repeatCount="indefinite" calcMode="linear">
    <mpath xlink:href="#path2"></mpath>
  </animateMotion>
</use><path id="path3" d="M 292.04747891136066 76.93577892715251
c 0 47.814283415475394 -11.69923955910568 13.733889917211018 -25.433129476316697 13.733889917211018
S 241.18121995872724 124.7500623426279 241.18121995872724 76.93577892715251
s 11.69923955910568 -13.733889917211018 25.433129476316697 -13.733889917211018
S 292.04747891136066 29.121495511677118 292.04747891136066 76.93577892715251
z" fill="none" stroke="none"></path>
<use xlink:href="#path-d5i7hnwv7u-1" x="0" y="0" stroke="#ff4655">
  <animateMotion begin="-1.4043312430244415s" dur="15.355343902164494s" keyPoints="1;0" keyTimes="0;1" repeatCount="indefinite" calcMode="linear">
    <mpath xlink:href="#path3"></mpath>
  </animateMotion>
</use><path id="path4" d="M 343.6102153455654 54.51315731823236
c 0 57.54937087714447 -14.081229044407689 16.530138443435114 -30.611367487842802 16.530138443435114
S 282.38748036987977 112.06252819537683 282.38748036987977 54.51315731823236
s 14.081229044407689 -16.530138443435114 30.611367487842802 -16.530138443435114
S 343.6102153455654 -3.0362135589121095 343.6102153455654 54.51315731823236
z" fill="none" stroke="none"></path>
<use xlink:href="#path-d5i7hnwv7u-3" x="0" y="0" stroke="#ff4655">
  <animateMotion begin="-3.6972355458928896s" dur="18.712670553974434s" keyPoints="0;1" keyTimes="0;1" repeatCount="indefinite" calcMode="linear">
    <mpath xlink:href="#path4"></mpath>
  </animateMotion>
</use><path id="path5" d="M 370.20380907057597 374.8136751641339
c 0 28.30805371029305 -6.926438673795107 8.131036704020344 -15.05747537781545 8.131036704020344
S 340.0888583149451 403.12172887442694 340.0888583149451 374.8136751641339
s 6.926438673795107 -8.131036704020344 15.05747537781545 -8.131036704020344
S 370.20380907057597 346.50562145384083 370.20380907057597 374.8136751641339
z" fill="none" stroke="none"></path>
<use xlink:href="#path-d5i7hnwv7u-3" x="0" y="0" stroke="#ff4655">
  <animateMotion begin="-3.9166248055074493s" dur="13.549328299320694s" keyPoints="1;0" keyTimes="0;1" repeatCount="indefinite" calcMode="linear">
    <mpath xlink:href="#path5"></mpath>
  </animateMotion>
</use><path id="path6" d="M 462.2032500511609 436.530732161119
c 0 46.414745764573624 -11.356799495587161 13.331895060037105 -24.688694555624267 13.331895060037105
S 412.82586093991245 482.9454779256926 412.82586093991245 436.530732161119
s 11.356799495587161 -13.331895060037105 24.688694555624267 -13.331895060037105
S 462.2032500511609 390.11598639654534 462.2032500511609 436.530732161119
z" fill="none" stroke="none"></path>
<use xlink:href="#path-d5i7hnwv7u-1" x="0" y="0" stroke="#ff4655">
  <animateMotion begin="-1.700899477693516s" dur="13.884731094673619s" keyPoints="1;0" keyTimes="0;1" repeatCount="indefinite" calcMode="linear">
    <mpath xlink:href="#path6"></mpath>
  </animateMotion>
</use><path id="path7" d="M 516.7966406273703 268.7946694076819
c 0 50.86353163909046 -12.445332209564686 14.609737811228111 -27.055070020792797 14.609737811228111
S 462.6865005857847 319.6582010467724 462.6865005857847 268.7946694076819
s 12.445332209564686 -14.609737811228111 27.055070020792797 -14.609737811228111
S 516.7966406273703 217.93113776859144 516.7966406273703 268.7946694076819
z" fill="none" stroke="none"></path>
<use xlink:href="#path-d5i7hnwv7u-1" x="0" y="0" stroke="#ff4655">
  <animateMotion begin="-1.9732596546934056s" dur="15.720077515254555s" keyPoints="0;1" keyTimes="0;1" repeatCount="indefinite" calcMode="linear">
    <mpath xlink:href="#path7"></mpath>
  </animateMotion>
</use><path id="path8" d="M 600.5591440207161 557.6684831757947
c 0 61.3698379038466 -15.016024167962465 17.62750663195594 -32.64353079991841 17.62750663195594
S 535.2720824208793 619.0383210796413 535.2720824208793 557.6684831757947
s 15.016024167962465 -17.62750663195594 32.64353079991841 -17.62750663195594
S 600.5591440207161 496.2986452719481 600.5591440207161 557.6684831757947
z" fill="none" stroke="none"></path>
<use xlink:href="#path-d5i7hnwv7u-3" x="0" y="0" stroke="#ff4655">
  <animateMotion begin="-4.201714778173912s" dur="15.579814436713997s" keyPoints="0;1" keyTimes="0;1" repeatCount="indefinite" calcMode="linear">
    <mpath xlink:href="#path8"></mpath>
  </animateMotion>
</use><path id="path9" d="M 655.9851997168992 564.5942909208094
c 0 41.92708031302884 -10.258753693613437 12.042884770763603 -22.301638464377042 12.042884770763603
S 611.3819227881452 606.5213712338382 611.3819227881452 564.5942909208094
s 10.258753693613437 -12.042884770763603 22.301638464377042 -12.042884770763603
S 655.9851997168992 522.6672106077806 655.9851997168992 564.5942909208094
z" fill="none" stroke="none"></path>
<use xlink:href="#path-d5i7hnwv7u-3" x="0" y="0" stroke="#ff4655">
  <animateMotion begin="-1.731654993303553s" dur="14.990042392948936s" keyPoints="0;1" keyTimes="0;1" repeatCount="indefinite" calcMode="linear">
    <mpath xlink:href="#path9"></mpath>
  </animateMotion>
</use><path id="path10" d="M 705.3519797614189 539.5032952726956
c 0 22.302868284489858 -5.457084793013475 6.406143017885385 -11.86322781089886 6.406143017885385
S 681.6255241396212 561.8061635571854 681.6255241396212 539.5032952726956
s 5.457084793013475 -6.406143017885385 11.86322781089886 -6.406143017885385
S 705.3519797614189 517.2004269882058 705.3519797614189 539.5032952726956
z" fill="none" stroke="none"></path>
<use xlink:href="#path-d5i7hnwv7u-2" x="0" y="0" stroke="#ff4655">
  <animateMotion begin="-0.4612642212029905s" dur="16.957407047041222s" keyPoints="0;1" keyTimes="0;1" repeatCount="indefinite" calcMode="linear">
    <mpath xlink:href="#path10"></mpath>
  </animateMotion>
</use></g>
</svg>