<svg width="100" height="100" viewBox="0 0 100 100" fill="none" xmlns="http://www.w3.org/2000/svg">
<path d="M5.48999 52.3917C5.48999 50.9895 5.48999 49.5874 5.48999 48.1852C6.89218 47.7178 7.82697 47.2504 8.76177 46.783C11.0988 45.3808 12.0335 43.5112 12.9683 41.1742C14.3705 38.3698 14.8379 35.0981 14.8379 31.8263C14.8379 29.0219 14.8379 26.6849 14.8379 23.8805C15.3053 19.674 18.1097 15.9348 22.3163 15C22.7837 15 23.2511 15 23.7185 15C41.0121 15 58.7732 15 76.0669 15C80.2735 15 84.0126 18.2718 84.48 22.011C84.9474 24.3479 84.48 27.1523 84.9474 29.4893C84.9474 33.6959 85.4148 37.9024 87.2844 42.109C88.6866 44.9134 90.5562 47.2504 94.2954 47.7178C94.2954 47.7178 94.2954 47.7178 94.7628 47.7178C94.7628 49.12 94.7628 50.5221 94.7628 51.9243C93.828 52.3917 92.8932 52.3917 91.9584 52.8591C89.6214 53.7939 88.2192 56.1309 87.2844 58.4679C85.8822 61.2723 85.4148 64.544 85.4148 67.8158C85.4148 70.6202 85.4148 73.4246 85.4148 75.7616C85.4148 80.9029 81.6757 84.6421 76.5343 84.6421C59.2406 84.6421 42.4143 84.6421 25.1206 84.6421C19.9793 84.6421 16.2401 80.9029 16.2401 75.7616C16.2401 71.555 16.2401 67.8158 15.7727 63.6093C13.9031 61.7397 13.4357 59.4027 12.0335 57.0657C10.6314 54.7287 8.76177 52.8591 5.95739 52.8591C5.95739 52.8591 5.95739 52.3917 5.48999 52.3917ZM12.5009 50.5221C14.8379 52.3917 16.2401 54.7287 17.6423 58.0005C19.5119 63.6093 19.9793 69.6854 19.9793 75.7616C19.9793 78.5659 21.8489 80.9029 24.6533 80.9029C30.262 80.9029 35.8708 80.9029 41.4795 80.9029C52.6971 80.9029 64.382 80.9029 75.5995 80.9029C77.4691 80.9029 78.8713 80.4355 79.3387 78.566C79.8061 77.6312 79.8061 76.6964 79.8061 75.2942C79.8061 70.6202 79.8061 66.4136 80.7409 61.7397C81.6757 57.0657 83.5452 53.3265 87.2844 50.0548C84.48 47.7178 82.6104 44.9134 81.6756 41.6416C80.2735 36.0329 79.8061 30.4241 79.8061 24.3479C79.8061 21.5436 77.9365 19.674 75.1321 19.674C58.3058 19.674 41.4795 19.674 24.1859 19.674C21.3815 19.674 19.9793 21.5436 19.5119 24.3479C19.5119 27.6197 19.5119 30.8915 19.5119 34.6307C19.0445 38.3698 18.1097 42.109 16.2401 45.3808C15.3053 47.2504 13.9031 48.6526 12.5009 50.5221Z" fill="white"/>
<path d="M56.4363 49.12C57.3711 49.5874 58.3059 49.5874 59.2407 50.0548C62.9799 51.9243 65.3169 55.6635 64.8495 60.3375C63.9147 65.4788 60.6429 68.7506 55.0341 69.218C53.6319 69.218 51.7624 69.218 50.3602 69.218C46.1536 69.218 41.947 69.218 37.7405 69.218C36.8057 69.218 36.8057 68.7506 36.8057 68.2832C36.8057 56.1309 36.8057 44.446 36.8057 32.2937C36.8057 31.3589 37.2731 31.3589 37.7405 31.3589C42.8818 31.3589 47.5558 31.3589 52.6972 31.3589C55.5015 31.3589 57.8385 32.2937 60.1755 34.1633C62.5125 36.5002 63.4473 39.3046 62.9799 42.5764C62.5125 45.8482 60.1755 48.1852 56.9037 49.12C56.4363 49.12 56.4363 49.12 56.4363 49.12ZM42.4144 58.4679C42.4144 60.3375 42.4144 62.2071 42.4144 64.0767C42.4144 64.544 42.4144 65.0114 42.8818 65.0114C46.1536 65.0114 49.4254 65.0114 52.6972 65.0114C55.9689 65.0114 57.8385 62.6745 58.3059 59.8701C58.7733 57.5331 57.8385 55.1961 55.5015 54.2613C54.5667 52.8591 53.1645 52.3917 52.2298 52.3917C48.958 52.3917 46.1536 52.3917 43.3492 52.3917C42.4144 52.3917 42.4144 52.3917 42.4144 52.8591C42.4144 54.7287 42.4144 56.5983 42.4144 58.4679ZM42.4144 42.109C42.4144 43.5112 42.4144 45.3808 42.4144 46.783C42.4144 47.7178 42.4144 47.7178 43.3492 47.7178C45.2188 47.7178 47.5558 47.7178 49.4254 47.7178C50.3602 47.7178 51.7624 47.7178 52.6972 47.2504C55.5015 46.3156 56.9037 44.446 56.9037 41.6416C56.9037 39.3046 55.5015 37.435 52.6972 36.9676C52.2298 36.9676 51.295 36.5002 50.8276 36.5002C48.4906 36.5002 45.6862 36.5002 43.3492 36.5002C42.8818 36.5002 42.4144 36.9676 42.4144 37.435C42.4144 38.8372 42.4144 40.2394 42.4144 42.109Z" fill="white"/>
</svg>
