<svg width="100" height="100" viewBox="0 0 100 100" fill="none" xmlns="http://www.w3.org/2000/svg">
<path d="M37.7736 86C44.566 86 49.5472 80.5661 49.5472 74.2265V62.4529H37.7736C30.9811 62.4529 26 67.8868 26 74.2265C26 80.5661 31.434 86 37.7736 86Z" fill="#ECE8E1"/>
<path d="M26 49.7735C26 42.9811 31.434 37.9999 37.7736 37.9999H49.5472V61.9999H37.7736C31.434 61.9999 26 56.566 26 49.7735Z" fill="white"/>
<path d="M26 25.7736C26 19.434 31.434 14 37.7736 14H49.5472V38H37.7736C31.434 38 26 32.566 26 25.7736Z" fill="#ECE8E1"/>
<path d="M50.0001 14H61.7737C68.5662 14 73.5473 19.434 73.5473 25.7736C73.5473 32.1132 68.5662 38 61.7737 38H50.0001V14Z" fill="white"/>
<path d="M74.0001 49.7735C74.0001 56.566 68.5662 61.5471 62.2265 61.5471C55.8869 61.5471 50.0001 56.566 50.0001 49.7735C50.0001 42.9811 55.4341 37.9999 61.7737 37.9999C68.1133 37.9999 74.0001 43.4339 74.0001 49.7735Z" fill="#ECE8E1"/>
</svg>
