<svg width="100" height="100" viewBox="0 0 100 100" fill="none" xmlns="http://www.w3.org/2000/svg">
<path d="M97.8379 49.9414C97.8379 53.1214 96.5659 56.3015 94.6578 58.2095C82.5736 70.2938 70.4893 82.3781 58.405 94.4624C53.3169 99.5505 46.3207 99.5505 41.2326 94.4624C30.4203 83.6502 19.6081 72.8379 8.7958 62.0256C7.52377 60.7536 6.25173 59.4816 4.9797 58.2095C0.527598 53.1214 0.527598 46.1253 4.9797 41.0371C15.792 30.2249 26.6042 19.4126 37.4165 8.60037C38.6885 7.96436 39.9605 6.69233 41.2326 5.4203C46.3207 0.968191 53.3169 0.332176 58.405 5.4203C68.5812 14.9605 78.1214 25.1368 87.6617 34.677C90.2057 37.2211 92.1138 39.1291 94.6578 41.6732C97.2019 43.5812 98.4739 46.7613 97.8379 49.9414ZM36.1445 16.2326C26.6042 25.7728 17.064 35.313 7.52377 44.8532C4.9797 48.0333 5.61572 52.4854 8.7958 55.6655C20.8801 67.7498 32.3284 79.198 44.4126 91.2823C48.2287 95.0984 52.6808 95.0984 56.4969 91.2823C68.5812 79.8341 80.0295 67.7498 91.4778 56.3015C95.2939 52.4854 95.2939 48.0333 91.4778 44.2172C87.6617 39.7651 83.2096 35.949 79.3935 32.1329C71.7613 24.5008 64.1291 16.8686 56.4969 9.23639C53.3169 5.4203 48.8648 4.78428 45.6847 7.32834C43.1406 9.23639 41.2326 11.1444 38.6885 13.6885C40.5966 14.3245 41.8686 15.5965 43.1406 16.8686C43.7766 18.1406 45.0487 18.1406 46.3207 17.5046C50.1368 15.5965 53.9529 16.2326 57.1329 18.7766C60.313 21.3207 62.2211 25.1368 60.313 28.9529C59.041 32.7689 60.313 34.041 62.8571 35.949C63.4931 36.585 63.4931 36.585 64.1291 37.2211C64.7651 38.4931 66.0372 38.4931 67.3092 37.8571C73.0333 35.313 79.3935 38.4931 81.3015 44.2172C82.5736 48.6693 81.3015 53.7574 77.4854 56.3015C73.0333 58.8456 67.9452 58.8456 64.7651 55.6655C60.949 53.1214 59.677 48.0333 60.949 43.5812C61.5851 42.9452 62.2211 41.6732 60.949 41.0371C59.677 39.7651 58.405 37.8571 56.4969 36.585C55.8609 35.949 55.2249 35.949 54.5889 36.585C53.9529 36.585 52.0448 37.2211 52.0448 37.8571C52.0448 44.8532 52.0448 51.2134 52.0448 57.5735C53.9529 58.8456 55.8609 60.1176 57.1329 61.3896C60.313 64.5697 60.949 69.6578 59.041 73.4739C57.1329 77.29 52.0448 79.8341 47.5927 78.562C43.7766 77.926 39.9605 74.1099 39.3245 69.6578C39.3245 65.2057 41.8686 60.7536 46.3207 58.8456C47.5927 58.2095 48.2287 57.5735 48.2287 56.3015C48.2287 50.5774 48.2287 44.8532 48.2287 39.1291C48.2287 37.8571 47.5927 36.585 46.3207 36.585C41.2326 34.677 38.0525 28.9529 39.9605 24.5007C41.2326 21.3207 39.9605 20.0486 38.0525 18.1406C37.4165 17.5046 36.7805 16.8686 36.1445 16.2326ZM43.7766 27.0448C43.7766 30.8609 46.3207 33.405 50.1368 33.405C53.3169 33.405 56.4969 30.2249 56.4969 27.0448C56.4969 23.8647 53.9529 20.6847 50.1368 20.6847C46.3207 20.6847 43.7766 23.2287 43.7766 27.0448ZM77.4854 47.3973C77.4854 44.2172 74.3054 41.0371 71.1253 41.0371C67.9452 41.0371 64.7651 43.5812 64.7651 47.3973C64.7651 50.5774 67.9452 53.7574 71.1253 53.7574C74.3054 53.7574 77.4854 51.2134 77.4854 47.3973ZM50.1368 62.6617C46.9567 62.6617 43.7766 65.2057 43.7766 68.3858C43.7766 72.2019 46.3207 74.7459 50.1368 74.7459C53.3169 74.7459 56.4969 72.2019 56.4969 68.3858C56.4969 65.2057 53.3169 62.6617 50.1368 62.6617Z" fill="#0F1923"/>
</svg>
