<svg width="100" height="100" viewBox="0 0 100 100" fill="none" xmlns="http://www.w3.org/2000/svg">
<path d="M41.5499 36.3047C40.9672 38.6358 40.3844 42.1325 39.8016 45.0464L36.8877 54.3709H46.795L43.8811 45.0464C43.2983 42.1325 42.1327 38.6358 41.5499 36.3047Z" fill="#FF4655"/>
<path d="M88.755 6H11.245C8.33113 6 6 8.33113 6 11.245V88.755C6 91.6689 8.33113 94 11.245 94H88.755C91.6689 94 94 91.6689 94 88.755V11.245C94 8.33113 91.6689 6 88.755 6ZM52.0397 73.6027L48.543 61.947H35.7219L32.2252 73.6027H21.7351L35.7219 28.7285H49.1258L63.1126 73.6027H52.0397ZM78.2649 73.6027H68.3576V40.9669H78.2649V73.6027ZM73.0199 36.8874C70.106 36.8874 67.7748 34.5563 67.7748 31.6424C67.7748 28.7285 70.106 26.3974 73.0199 26.3974C75.9338 26.3974 78.2649 28.7285 78.2649 31.6424C78.2649 34.5563 76.5166 36.8874 73.0199 36.8874Z" fill="#FF4655"/>
</svg>
