<svg width="100" height="100" viewBox="0 0 100 100" fill="none" xmlns="http://www.w3.org/2000/svg">
<path d="M26.837 28.466C27.4234 27.8796 27.7166 27.2932 28.303 27C28.5962 27 28.8894 27 29.1826 27H41.4972C41.204 27.2932 40.9108 27.5864 40.6176 28.1728C40.0312 29.3456 39.4448 30.5184 39.1516 31.3981C37.9788 34.9165 37.3923 38.4349 36.5127 42.2466C36.2195 44.0058 35.9263 45.4718 35.6331 47.231C34.7535 52.5087 33.5807 57.7864 32.4079 63.3572C31.8215 65.7029 31.2351 68.3417 30.3555 70.6873C30.0623 71.5669 29.4758 72.7397 28.5962 73.3262C28.303 73.6194 28.303 73.6194 28.0098 73.6194H17.1613C16.2817 73.6194 15.6953 73.6194 14.8157 73.6194C15.4021 73.3262 15.6953 72.7397 15.9885 72.1533C16.8681 70.6873 17.4545 68.9281 17.7477 67.1689C18.6273 64.53 19.2137 61.598 19.8001 58.9592C20.0933 56.9068 20.6797 55.1475 20.9729 53.3883C21.2662 51.3359 21.8526 49.2835 22.1458 47.231C22.7322 44.299 23.3186 41.367 23.905 38.4349C24.4914 36.0893 25.0778 33.7437 25.6642 31.6913C25.9574 30.5184 26.5438 29.3456 26.837 28.466Z" fill="white"/>
<path d="M41.4971 27C41.7903 27 42.0835 27 42.3767 27C42.9631 27.2932 43.5495 27.8796 44.1359 28.7592C44.4292 29.6388 45.0156 30.5184 45.3088 31.3981C46.4816 34.9165 47.068 38.1417 47.9476 41.6602C48.534 44.8854 49.1204 47.8174 49.7068 51.0427C49.7068 51.3359 49.7068 51.3359 50 51.3359C49.1204 55.4407 48.534 59.5456 47.3612 63.6504C46.7748 65.9961 46.1884 68.0485 45.3088 70.1009C45.0156 71.2737 44.4292 72.4465 43.5495 73.033C42.9631 73.033 42.6699 72.7397 42.0835 72.4465C41.4971 71.5669 41.2039 70.6873 40.6175 69.8077C39.4447 66.2893 38.5651 62.7708 37.9787 59.5456C37.3923 56.9068 36.8059 53.9747 36.2195 51.3359C35.9263 49.8699 35.633 48.6971 35.3398 47.231C35.633 45.4718 35.9263 44.0058 36.2195 42.2466C37.0991 38.7281 37.6855 34.9165 38.8583 31.3981C39.1515 30.2252 39.7379 29.0524 40.3243 28.1728C40.9107 27.5864 41.2039 27.2932 41.4971 27Z" fill="#ECE8E1"/>
<path d="M55.2777 28.7592C55.5709 27.8796 56.1573 27.2932 57.0369 27C61.435 27 65.8331 27 70.2311 27C69.9379 27.2932 69.3515 27.8796 69.0583 28.466C68.1787 29.932 67.5923 31.6913 67.2991 33.4505C66.1263 38.1417 64.9534 42.5398 64.367 47.231C63.4874 51.9223 62.6078 56.3204 61.7282 61.0116C61.1418 63.3572 60.5554 65.7029 59.969 67.7553C59.6758 69.2213 59.0894 70.6873 58.503 71.8601C58.2098 72.4465 57.6234 73.033 57.0369 73.3262C52.9321 73.3262 48.8272 73.3262 44.4292 73.3262C44.136 73.3262 43.8428 73.3262 43.8428 73.3262C44.7224 72.4465 45.3088 71.2737 45.602 70.3941C46.4816 68.3417 47.068 65.9961 47.6544 63.9436C48.534 59.8388 49.4136 55.7339 50.2933 51.6291C51.1729 46.3514 52.3457 41.0738 53.5185 35.7961C53.5185 33.4505 54.1049 31.1048 55.2777 28.7592Z" fill="white"/>
<path d="M69.9378 27C70.231 27 70.5242 27 71.1106 27C71.697 27.2932 71.9902 27.8796 72.5767 28.1728C73.1631 29.0524 73.4563 30.2252 74.0427 31.1048C74.9223 34.0369 75.5087 36.6757 76.3883 39.6078C77.2679 43.4194 77.8543 47.231 78.7339 51.3359C79.0271 52.2155 79.0271 53.0951 79.3203 54.2679C79.3203 54.2679 79.3203 54.2679 79.6135 54.5611C79.3203 55.1475 79.0271 55.7339 78.7339 56.3204C78.1475 58.666 77.5611 60.7184 77.2679 63.064C76.9747 64.8233 76.6815 66.5825 76.0951 68.3417C75.8019 69.5145 75.2155 70.9805 74.3359 71.8601C74.0427 72.4465 73.4563 72.7397 72.8698 73.033C71.9902 73.033 71.4038 72.1533 71.1106 71.5669C70.231 70.1009 69.6446 68.3417 69.0582 66.5825C67.299 60.132 66.1262 53.6815 64.9534 46.9378C64.9534 46.9378 64.9534 46.6446 64.6602 46.6446C65.5398 41.9534 66.4194 37.2621 67.5922 32.8641C68.1786 31.1048 68.4718 29.6388 69.3514 27.8796C69.0582 27.8796 69.6446 27.2932 69.9378 27Z" fill="#ECE8E1"/>
<path d="M4.55347 51.9222C4.84667 51.9222 5.13987 51.9222 5.43308 51.9222H17.4544C18.0408 51.9222 18.6272 51.9222 18.9204 52.2154C19.5068 52.5086 20.0933 52.8019 20.6797 53.3883C20.6797 53.3883 20.9729 53.3883 20.9729 53.0951C20.6797 54.8543 20.3865 56.6135 19.8 58.6659C19.2136 61.3047 18.6272 64.2368 17.7476 66.8756C17.1612 68.6348 16.868 70.394 15.9884 71.8601C15.6952 72.4465 15.402 72.7397 14.8156 73.3261C14.5224 73.3261 14.5224 73.3261 14.2292 73.0329C13.6428 72.7397 13.3496 72.1533 13.0564 71.5669C11.5904 68.0484 11.2971 64.2368 10.4175 60.7183C10.1243 59.2523 9.53793 57.4931 8.65832 55.7339C8.07191 54.8543 7.4855 53.6815 6.60589 53.0951C6.01948 52.5086 5.43308 52.2154 4.55347 51.9222Z" fill="#ECE8E1"/>
<path d="M79.9067 53.0951C80.4931 52.2154 81.6659 51.9222 82.5455 51.9222H91.6348C92.8076 51.9222 94.2737 51.9222 95.4465 51.9222C95.1533 52.2154 94.5669 52.2154 94.2737 52.5086C92.8076 53.0951 91.6348 54.2679 91.0484 55.4407C89.8756 57.4931 89.5824 59.8387 88.996 62.1844C88.7028 64.53 88.7028 66.8756 87.8232 69.2212C87.2368 70.6872 86.6504 72.4465 85.1844 73.3261C81.0795 73.3261 76.9747 73.3261 72.8698 73.3261C72.5766 73.3261 72.2834 73.3261 71.9902 73.3261C72.5766 73.0329 73.163 72.7397 73.4562 72.1533C74.3359 70.9804 74.9223 69.8076 75.2155 68.6348C75.8019 66.8756 76.0951 65.1164 76.3883 63.3572C76.6815 61.0115 77.2679 58.6659 77.8543 56.6135C78.1475 56.0271 78.1475 55.4407 78.7339 54.8543C79.3203 53.9747 79.3203 53.3883 79.9067 53.0951Z" fill="white"/>
</svg>
