<svg width="100" height="100" viewBox="0 0 100 100" fill="none" xmlns="http://www.w3.org/2000/svg">
<path d="M25.6897 37.7623H43.0822V39.218H27.54V49.0443H42.3421V50.5001H27.54V61.4182H43.4523V62.8739H25.6897V37.7623ZM44.5624 37.7623H46.4127L54.5539 48.6804L62.6951 37.7623L73.7967 23.5687L55.294 49.7722L64.9154 62.8739H63.0651L54.5539 51.2279L45.6726 62.8739H43.8223L53.4437 49.7722L44.5624 37.7623ZM65.6555 38.8541V37.7623H85.6384V39.218H76.7571V63.2378H75.2769V38.8541H65.6555Z" fill="#FF4655"/>
<path d="M4.22656 37.7622H6.07683L33.4608 77.4313L22.3592 62.8739L5.70678 39.5819V62.8739H4.22656V37.7622Z" fill="#FF4655"/>
<path d="M85.2684 61.054C85.6385 61.054 86.0085 60.6901 86.0085 60.3261C86.0085 59.9622 85.6385 59.5983 85.2684 59.5983C84.8984 59.5983 84.5283 59.9622 84.5283 60.3261C84.8984 60.6901 84.8984 61.054 85.2684 61.054ZM86.7486 59.5983C86.7486 60.6901 87.4887 61.054 88.5989 61.054C89.7091 61.054 90.4492 60.3261 90.4492 59.2343V55.595H89.339V59.5983C89.339 60.3261 88.969 60.6901 88.5989 60.6901C88.2288 60.6901 87.8588 60.3261 87.8588 59.9622H86.7486V59.5983ZM91.5593 59.5983C91.5593 60.6901 92.2994 61.054 93.7797 61.054C95.2599 61.054 96 60.3261 96 59.2343C96 58.5065 95.6299 58.1425 94.5198 57.7786H93.7797C93.0395 57.7786 92.6695 57.4147 92.6695 57.0507C92.2994 56.6868 93.0395 56.3228 93.4096 56.3228C94.1497 56.3228 94.5198 56.6868 94.5198 57.0507H95.2599C95.2599 55.9589 94.5198 55.595 93.4096 55.595C92.2994 55.595 91.5593 56.3228 91.5593 57.0507C91.5593 57.7786 91.9294 58.1425 93.0395 58.5065H93.7797C94.5198 58.5065 94.8898 58.8704 94.8898 59.2343C94.8898 59.5983 94.5198 59.9622 93.7797 59.9622C93.0395 59.9622 92.6695 59.5983 92.2994 59.2343H91.5593V59.5983Z" fill="#FF4655"/>
</svg>
