<svg width="100" height="100" viewBox="0 0 100 100" fill="none" xmlns="http://www.w3.org/2000/svg">
<path d="M35.9203 31.2266C33.5736 31.2266 32.4003 31.2266 31.2269 31.8132V45.8932C32.4003 45.8932 33.5736 45.8932 34.7469 45.8932C40.6136 45.8932 44.1336 42.9599 44.1336 37.6799C44.7203 33.5732 41.2003 31.2266 35.9203 31.2266Z" fill="#FF4655"/>
<path d="M88.72 6H11.28C8.34667 6 6 8.34667 6 11.28V88.72C6 91.6533 8.34667 94 11.28 94H88.72C91.6533 94 94 91.6533 94 88.72V11.28C94 8.34667 91.6533 6 88.72 6ZM51.1733 49.4133C47.0667 52.9333 41.7867 54.6933 35.3333 54.6933C34.16 54.6933 32.4 54.6933 31.8133 54.6933V72.2933H20.6667V23.6C23.6 23.6 28.88 23.0133 35.3333 23.0133C42.3733 23.0133 47.0667 24.1867 50 27.12C53.52 29.4667 55.28 32.9867 55.28 38.2667C55.28 42.96 54.1067 47.0667 51.1733 49.4133ZM67.6 72.2933C62.9067 72.2933 58.8 71.12 56.4533 69.9467L58.2133 62.32C59.9733 63.4933 64.08 64.6667 67.6 64.6667C71.12 64.6667 72.2933 63.4933 72.2933 61.7333C72.2933 59.9733 71.12 58.8 67.0133 57.6267C59.3867 55.28 56.4533 51.76 57.04 47.0667C57.04 40.6133 62.9067 35.3333 71.12 35.3333C75.2267 35.3333 78.7467 36.5067 81.0933 37.0933L79.3333 44.72C77.5733 44.1333 74.64 42.96 71.7067 42.96C68.7733 42.96 67.6 44.1333 67.6 45.8933C67.6 47.6533 68.7733 48.24 73.4667 50C79.92 52.3467 82.8533 55.8667 82.8533 61.1467C82.8533 67.6 77.5733 72.2933 67.6 72.2933Z" fill="#FF4655"/>
</svg>
