<svg width="100" height="100" viewBox="0 0 100 100" fill="none" xmlns="http://www.w3.org/2000/svg">
<path d="M58.2073 49.5456C58.2073 53.9977 54.3118 57.8932 49.8597 57.8932C45.4076 57.8932 40.9556 54.5542 40.9556 49.5456C40.9556 45.0936 44.8511 41.198 49.3032 41.198C53.7552 41.198 58.2073 45.0936 58.2073 49.5456Z" fill="#0F1923"/>
<path d="M49.8596 30.0679C23.1473 30.0679 2 38.972 2 49.5456C2 60.1193 23.1473 69.0234 49.8596 69.0234C76.0155 69.0234 97.7193 60.1193 97.7193 49.5456C97.7193 38.972 76.0155 30.0679 49.8596 30.0679ZM81.5806 59.5628C73.233 62.9018 61.5463 65.1278 49.3031 65.1278C37.06 65.1278 25.9298 63.4583 17.0257 59.5628C10.3476 56.7802 5.89555 52.8847 5.89555 49.5456C5.89555 46.2066 10.3476 42.311 17.5822 39.5285C25.9298 36.1895 37.6165 33.9634 49.8596 33.9634C62.1028 33.9634 73.233 35.6329 82.1371 39.5285C89.3717 42.311 93.8237 46.2066 93.8237 49.5456C93.8237 52.8847 88.8152 56.7802 81.5806 59.5628Z" fill="#0F1923"/>
<path d="M32.6078 40.085C19.8081 62.9018 16.4691 85.7186 25.9297 90.7272C35.3903 96.2922 53.1986 81.823 66.5548 59.0062C79.9109 36.1894 82.6935 13.3726 73.7894 7.80753C64.3287 2.79896 45.964 17.2682 32.6078 40.085ZM74.3459 26.7288C73.2328 35.6329 68.7808 46.7631 62.6592 57.3367C56.5376 67.9103 49.303 76.8145 42.0684 82.3795C35.9468 87.3881 30.3818 89.0576 27.5992 87.3881C24.8167 85.7186 23.7037 80.1535 24.8167 72.3624C25.9297 63.4583 30.3818 52.3281 36.5033 41.7545C42.6249 31.1808 49.8595 22.2767 57.0941 16.7117C63.2157 11.7031 68.7808 10.0336 71.5633 11.7031C74.3459 13.3726 75.4589 18.9377 74.3459 26.7288Z" fill="#0F1923"/>
<path d="M25.9298 8.36398C16.4692 13.9291 19.8082 36.7459 33.1644 59.5627C46.5206 82.3795 64.3288 96.2922 73.7894 91.2836C83.2501 85.7185 79.911 62.9017 66.5548 40.0849C53.1987 17.2681 34.8339 2.7989 25.9298 8.36398ZM27.5993 11.703C30.3818 10.0335 35.9469 11.703 42.0685 16.7116C49.3031 22.2767 56.5377 31.1808 62.6593 41.7544C68.7809 52.3281 72.6764 63.4582 74.3459 72.3623C75.459 80.1535 74.3459 85.7185 71.5634 87.388C68.7809 89.0576 63.2158 87.388 57.0942 82.3795C49.8596 76.8144 42.625 67.9103 36.5034 57.3366C30.3818 46.763 25.9298 36.1894 24.8168 26.7287C23.7038 18.9376 24.8168 13.3725 27.5993 11.703Z" fill="#0F1923"/>
</svg>
