<svg width="100" height="100" viewBox="0 0 100 100" fill="none" xmlns="http://www.w3.org/2000/svg">
<path d="M85.3884 57.7108C83.8759 58.2148 83.8759 58.2148 82.8677 56.7027C82.3635 55.1906 81.8594 53.1744 81.8594 50.6542C81.8594 48.6381 82.3635 47.126 82.8677 45.1098C83.3718 43.5977 82.8677 43.0936 81.3553 43.0936C80.347 43.0936 79.8429 43.0936 78.8346 43.0936C76.818 43.0936 76.3139 43.5977 75.8098 45.6138C75.3056 47.126 75.3056 48.134 74.8015 49.6462C73.2891 52.6704 71.7767 55.6946 70.2643 58.2148C69.7602 58.7189 69.7602 59.2229 69.256 59.7269C68.2478 57.7108 67.7436 55.6946 67.2395 53.6785C67.2395 51.6623 67.7436 49.6462 68.2478 47.63C68.2478 47.126 68.2478 46.6219 67.7436 46.1179C67.7436 46.1179 67.2395 46.1179 66.7353 45.6138C65.2229 45.6138 63.7105 45.6138 62.7023 46.1179C62.1981 46.1179 61.694 46.6219 61.694 47.126C61.1899 48.6381 61.1899 49.6462 60.1816 51.1583C58.6692 54.6866 57.1568 58.2148 55.6444 61.7431C54.132 64.7673 53.1237 67.7916 51.1072 70.8158C51.1072 70.8158 51.1072 71.3199 50.603 71.3199C50.0989 71.3199 50.603 70.8158 50.603 70.8158C50.603 69.3037 51.1072 67.2875 51.6113 65.7754C52.1154 63.2552 53.1237 60.735 53.6278 57.7108C53.6278 56.7027 53.6278 56.1987 52.6196 56.1987C51.6113 55.6946 50.603 55.6946 49.5948 56.1987C49.5948 55.1906 49.5948 54.1825 49.5948 53.1744C49.5948 51.1583 48.5865 49.6462 46.5699 49.1421C45.5617 49.1421 44.0493 49.1421 43.041 49.6462C41.0245 52.6704 39.0079 54.1825 37.4955 56.7027C37.4955 57.2068 36.9914 57.2067 36.9914 57.2067C33.4624 59.2229 30.4376 60.735 26.9087 62.7512C26.4045 62.7512 26.4045 62.7512 25.9004 62.7512C24.388 60.735 22.3715 59.7269 20.3549 58.2148C17.8342 55.6946 14.8094 53.6785 12.7929 51.1583C11.2805 49.6462 10.2722 48.134 9.76807 46.1179C8.7598 43.0936 9.76807 40.0694 11.2805 37.5492C13.297 34.0209 15.8177 31.5007 18.8425 29.4846C23.3797 25.9563 28.4211 22.9321 33.9666 20.4119C40.0162 17.8917 46.0658 15.8755 53.1237 16.3796C55.6444 16.3796 58.1651 16.8836 60.6857 18.3957C62.1981 19.4038 63.2064 20.4119 63.7105 22.428C64.2147 24.9482 63.7105 26.9644 62.7023 28.9805C60.6857 33.5169 56.6526 36.5411 52.6196 39.0613C48.0823 41.0775 44.5534 42.0856 40.5203 43.0936C38.5038 43.0936 35.9831 43.5977 33.9666 43.0936C31.4459 42.5896 28.9252 42.0856 26.9087 39.5654C26.9087 39.5654 26.4045 39.0613 25.9004 39.5654C25.9004 39.5654 25.9004 40.0694 25.9004 40.5734V41.0775C26.4045 42.5896 27.4128 43.0936 28.4211 44.1017C31.4459 46.1179 34.4707 46.6219 37.4955 47.126C40.5203 47.126 44.0493 46.6219 47.0741 46.1179C54.132 44.6058 60.1816 41.0775 64.7188 35.029C67.2395 31.5007 68.7519 27.4684 68.7519 22.9321C68.7519 19.9078 67.7436 17.3876 65.7271 15.3715C63.2064 12.8513 60.1816 11.8432 56.6526 10.8351C53.1237 9.82704 49.5948 9.82704 45.5617 10.3311C42.5369 10.3311 39.512 11.3392 35.9831 12.3472C31.4459 13.8594 26.9087 15.8755 22.3715 18.3957C17.8342 20.9159 13.8012 23.9401 9.76807 27.4684C6.74326 30.4927 3.71845 34.0209 2.20605 38.5573C1.19777 40.0694 0.693639 42.0856 1.19777 44.1017C1.70191 46.6219 3.21432 49.1421 4.72672 51.1583C7.2474 54.1825 10.2722 56.7027 13.8012 59.2229C16.3218 61.2391 19.3466 62.7512 21.3632 64.7673C22.3715 65.2714 22.3715 65.2714 21.3632 65.7754C20.3549 66.2795 19.3466 66.7835 18.3384 67.2875C14.3053 69.3037 10.7763 71.8239 7.75153 75.3522C6.23913 76.8643 5.23086 78.3764 4.72672 80.8966C4.22259 83.4168 3.21432 91.4814 13.297 90.9774C18.8425 90.4733 23.3797 87.4491 26.4045 82.9128C27.9169 80.3926 28.9252 77.8724 28.9252 74.8481C28.9252 72.3279 28.9252 69.8077 28.4211 67.7916C28.4211 67.2875 27.9169 66.7835 27.9169 66.7835C28.4211 65.2714 28.9252 65.2714 29.4293 65.2714C30.9417 64.2633 32.4542 63.2552 33.9666 62.7512C33.9666 63.2552 33.9666 63.2552 33.9666 63.7593C32.9583 67.2875 32.4542 70.3118 32.9583 73.84C33.4624 75.8562 33.9666 77.8724 35.479 79.8885C36.9914 81.9047 40.0162 81.4006 41.5286 79.8885C42.5369 78.3764 43.5451 76.3602 44.5534 74.8481C45.0575 73.84 45.5617 72.832 46.0658 71.8239C46.0658 72.832 46.0658 74.3441 46.0658 75.3522C46.0658 76.3602 46.0658 77.8724 47.0741 78.8804C47.5782 79.8885 49.0906 80.3926 50.603 79.8885C52.1154 79.3845 52.6196 77.8724 53.6278 76.8643C56.6526 71.8239 59.1733 66.2795 61.694 60.735C62.1981 59.7269 62.7023 58.2148 63.2064 57.2067C63.2064 57.7108 63.2064 57.7108 63.2064 58.2148C63.7105 60.735 64.7188 63.2552 65.7271 65.7754C66.2312 66.2795 66.2312 66.7835 65.7271 67.2875C64.7188 68.7997 63.2064 70.3118 61.694 72.3279C60.6857 73.84 59.1733 74.8481 58.6692 76.3602C57.6609 77.8724 58.1651 78.8804 59.6775 79.3845C60.1816 79.3845 60.6857 79.3845 61.1899 79.3845C63.7105 79.3845 65.7271 78.3764 67.7436 77.3683C70.7684 75.8562 72.2808 73.336 72.2808 69.8077C72.2808 68.2956 71.7767 66.7835 71.2726 65.2714C71.2726 64.7673 71.2726 64.7673 71.2726 64.2633C73.2891 61.2391 74.8015 58.7189 76.3139 55.6946C76.818 55.1906 76.8181 54.6866 77.3222 54.1825V54.6866C77.8263 57.2067 78.3305 59.7269 79.8429 61.7431C80.347 62.2471 79.8429 62.7512 79.3387 63.2552C77.8263 64.7673 76.3139 66.2795 75.3056 68.2956C74.2974 69.8077 73.7932 71.3199 73.7932 72.832C73.7932 74.8481 75.3056 75.8562 77.3222 75.3522C79.3387 74.8481 80.8511 73.8401 82.8677 72.832C86.3966 70.3118 87.4049 67.2875 86.3966 63.7593C85.8925 62.2471 85.8925 62.2471 87.4049 61.7431C90.9338 60.735 93.9586 60.735 97.4876 61.2391C97.9917 61.2391 97.9917 61.2391 98.4959 61.2391C98.4959 60.231 99 58.7189 99 57.7108C93.9586 55.6946 89.9256 56.1987 85.3884 57.7108ZM16.3218 84.4249C15.3136 84.9289 14.3053 84.9289 13.297 84.9289C11.7846 84.9289 11.2805 83.9208 11.2805 82.4087C11.2805 80.8966 11.7846 79.3845 12.2887 77.8724C13.297 75.3522 15.8177 73.84 17.8342 72.3279C19.8508 70.8158 21.8673 69.3037 24.388 68.2956C24.8921 67.7916 24.8921 67.7916 25.3963 68.7997C25.3963 69.8077 25.9004 70.8158 25.9004 71.8239C25.3963 77.3683 21.3632 82.9128 16.3218 84.4249ZM46.5699 56.1987C46.5699 58.7189 45.5617 60.735 44.5534 63.2552C43.5451 66.2795 42.5369 69.3037 41.0245 72.3279C40.5203 72.832 40.5203 73.8401 40.0162 74.3441C39.512 74.8481 39.0079 74.8481 38.5038 74.3441C37.9996 73.336 37.9996 71.8239 37.9996 70.8158C37.9996 65.7754 39.512 61.7431 42.5369 58.2148C43.041 56.1987 44.0493 55.6946 45.5617 55.1906C46.5699 55.1906 47.0741 55.1906 46.5699 56.1987ZM66.2312 71.3199C65.2229 72.832 63.7105 74.3441 62.1981 74.8481H61.694V74.3441C63.2064 72.3279 65.2229 70.8158 66.7353 68.7997C66.7353 69.8077 66.7353 70.3118 66.2312 71.3199ZM77.8263 70.8158C77.8263 70.8158 77.3222 71.3199 76.8181 70.8158C76.3139 70.8158 76.8181 70.3118 76.8181 69.8077C77.3222 68.2956 77.8263 67.2875 78.3305 66.2795C78.8346 65.2714 79.8429 64.2633 80.347 63.7593C80.8511 63.2552 80.8511 63.2552 80.8511 63.7593C80.8511 64.2633 80.8511 64.7673 80.8511 65.2714C81.3553 68.2956 79.8429 69.8077 77.8263 70.8158Z" fill="#FF4655"/>
</svg>
