<svg width="100" height="100" viewBox="0 0 100 100" fill="none" xmlns="http://www.w3.org/2000/svg">
<path d="M72.732 59.197C71.3426 64.0598 69.2586 68.5753 65.4378 72.0487C62.659 74.4801 59.1856 75.8695 55.7122 76.5642C51.1967 77.2589 46.3339 77.2589 41.8184 75.8695C38.6923 74.8275 35.9136 73.4381 33.1348 71.0067C30.7034 68.9226 28.272 66.4912 26.188 64.0598C23.4092 61.2811 19.9358 60.239 16.115 60.239C13.3362 60.239 10.5575 61.6284 8.47344 63.3651C7.4314 64.4072 6.38937 65.4492 5.34734 66.4912L5 66.8386C6.73672 60.5864 9.51547 55.0289 15.4203 51.9028C17.5044 50.8608 20.2831 50.1661 23.0619 49.8187C25.8406 49.4714 28.6194 49.4714 31.3981 49.8187C36.2609 50.5134 40.429 52.2501 43.9025 55.3762C46.3339 57.4603 48.4179 59.5444 50.502 61.6284C52.5861 63.3651 54.6701 64.7545 57.4489 65.4492C61.617 66.1439 65.4378 65.4492 68.9112 62.6704C70.3006 61.6284 71.3426 60.5864 72.732 59.197Z" fill="#0F1923"/>
<path d="M27.23 39.7458C27.9247 36.9671 28.9667 34.5357 30.3561 32.1043C33.4822 27.2415 37.6503 24.1154 43.2078 22.726C46.6812 22.0313 49.8073 21.684 53.2807 22.3787C57.4489 22.726 61.2696 24.1154 64.3957 26.5468C66.8271 28.2835 68.9112 30.3676 70.9953 32.4516C72.3846 33.841 74.1214 35.5777 75.8581 36.6197C80.0262 39.3985 84.1943 39.3985 88.7098 37.6618C91.1412 36.2724 93.2252 34.5357 94.962 32.4516L95.3093 32.1043C95.3093 32.1043 95.3093 32.1043 95.6566 32.1043C95.6566 32.4516 95.6566 32.4516 95.6566 32.799C94.6146 35.9251 93.5726 39.0511 91.4885 41.8299C88.7098 45.3033 85.2363 47.7347 80.7209 48.7768C74.816 49.8188 68.9112 49.8188 63.3537 47.7347C59.8803 46.3454 57.1015 44.2613 54.3228 41.8299C52.5861 40.0932 50.8493 38.3565 49.1126 36.6197C47.0286 34.5357 44.5972 33.1463 41.4711 32.799C37.9976 32.4516 35.2189 33.1463 32.4401 34.883C30.3561 36.2724 28.6194 38.0091 27.23 39.7458Z" fill="#0F1923"/>
</svg>
