<svg width="100" height="100" viewBox="0 0 100 100" fill="none" xmlns="http://www.w3.org/2000/svg">
<path d="M33.0258 33.7212H27.8851L40.4512 69.7059L47.8766 49.1432L42.1648 33.15H37.5953V30.2941H59.3003V33.7212H54.1597L66.7257 69.7059L71.2952 56.5686C77.5783 39.4331 66.1546 34.2924 66.1546 30.8653C66.1546 27.4382 69.0105 24.0111 73.0088 24.0111H73.58C67.2969 17.728 58.7292 14.3009 49.019 14.3009C37.5953 14.3009 26.7428 20.5839 20.4597 30.2941H33.0258V33.7212Z" fill="#FF4655"/>
<path d="M14.1765 49.7144C14.1765 63.4228 21.6019 75.4177 33.0256 81.1296L17.0324 36.0059C15.3189 40.5754 14.1765 45.1449 14.1765 49.7144Z" fill="#FF4655"/>
<path d="M81.0052 32.5789C81.5764 35.4348 81.5764 38.862 80.434 42.2891L79.8629 44.0026C79.2917 45.145 79.2917 46.2874 78.7205 47.4297L66.7256 81.7009C78.1493 75.989 85.5747 63.9941 85.5747 50.2857C85.5747 43.4314 83.8612 37.7196 81.0052 32.5789Z" fill="#FF4655"/>
<path d="M38.7375 83.9856C42.1647 85.128 46.163 85.6991 49.5901 85.6991C53.0172 85.6991 57.0155 85.128 59.8714 83.9856L50.1613 54.2839L38.7375 83.9856Z" fill="#FF4655"/>
<path d="M79.8628 20.0127C71.8662 12.0161 61.0137 7.44666 49.59 7.44666C38.1663 7.44666 27.8849 12.0161 19.8883 20.0127C11.8918 28.0093 7.32227 38.8619 7.32227 49.7144C7.32227 61.1381 11.8918 71.9906 19.8883 79.9872C27.8849 87.9838 38.7375 92.5533 50.1612 92.5533C61.5849 92.5533 72.4374 87.9838 80.434 79.9872C88.4306 71.9906 93.0001 61.1381 93.0001 49.7144C92.4289 38.8619 87.8594 28.0093 79.8628 20.0127ZM49.59 89.6974C27.8849 89.6974 10.1782 71.9906 10.1782 50.2856C10.1782 28.5805 27.8849 10.8738 49.59 10.8738C71.2951 10.8738 89.0018 28.5805 89.0018 50.2856C89.0018 71.9906 71.8662 89.6974 49.59 89.6974Z" fill="#FF4655"/>
</svg>
