<svg width="100" height="100" viewBox="0 0 100 100" fill="none" xmlns="http://www.w3.org/2000/svg">
<path d="M33.0258 33.7212H27.8851L40.4512 69.7059L47.8766 49.1433L42.1648 33.1501H37.5953V30.2941H59.3003V33.7212H54.1597L66.7257 69.7059L71.2952 56.5687C77.5783 39.4331 66.1546 34.2924 66.1546 30.8653C66.1546 27.4382 69.0105 24.0111 73.0088 24.0111H73.58C67.2969 17.728 58.7292 14.3009 49.019 14.3009C37.5953 14.3009 26.7428 20.584 20.4597 30.2941H33.0258V33.7212Z" fill="white"/>
<path d="M14.1763 49.7144C14.1763 63.4228 21.6017 75.4177 33.0254 81.1296L17.0322 36.0059C15.3186 40.5754 14.1763 45.1449 14.1763 49.7144Z" fill="white"/>
<path d="M81.0052 32.579C81.5764 35.4349 81.5764 38.862 80.434 42.2891L79.8629 44.0027C79.2917 45.1451 79.2917 46.2874 78.7205 47.4298L66.7256 81.701C78.1493 75.9891 85.5747 63.9942 85.5747 50.2857C85.5747 43.4315 83.8612 37.7197 81.0052 32.579Z" fill="white"/>
<path d="M38.7374 83.9856C42.1645 85.128 46.1628 85.6992 49.59 85.6992C53.0171 85.6992 57.0154 85.128 59.8713 83.9856L50.1611 54.284L38.7374 83.9856Z" fill="white"/>
<path d="M79.8627 20.0128C71.8661 12.0162 61.0136 7.44669 49.5899 7.44669C38.1662 7.44669 27.8848 12.0162 19.8882 20.0128C11.8916 28.0094 7.32214 38.8619 7.32214 49.7144C7.32214 61.1381 11.8916 71.9907 19.8882 79.9873C27.8848 87.9839 38.7374 92.5533 50.1611 92.5533C61.5848 92.5533 72.4373 87.9839 80.4339 79.9873C88.4305 71.9907 93 61.1381 93 49.7144C92.4288 38.8619 87.8593 28.0094 79.8627 20.0128ZM49.5899 89.6974C27.8848 89.6974 10.1781 71.9907 10.1781 50.2856C10.1781 28.5806 27.8848 10.8738 49.5899 10.8738C71.2949 10.8738 89.0017 28.5806 89.0017 50.2856C89.0017 71.9907 71.8661 89.6974 49.5899 89.6974Z" fill="white"/>
</svg>
